<svg width="24" height="17" viewBox="0 0 24 17" fill="none" xmlns="http://www.w3.org/2000/svg">
<path d="M2.05569 16.2339C2.20949 16.2341 2.3618 16.2039 2.50389 16.145C2.64598 16.0862 2.77504 15.9998 2.88365 15.8909L9.47129 9.30325L12.156 11.988C12.2647 12.0967 12.3938 12.183 12.5359 12.2418C12.6779 12.3007 12.8302 12.331 12.9839 12.331C13.1377 12.331 13.29 12.3007 13.432 12.2418C13.5741 12.183 13.7032 12.0967 13.8119 11.988L21.1797 4.6202L21.1793 7.25708C21.1793 7.56762 21.3026 7.86544 21.5222 8.08502C21.7418 8.3046 22.0396 8.42796 22.3501 8.42796C22.6607 8.42796 22.9585 8.3046 23.1781 8.08502C23.3977 7.86544 23.521 7.56762 23.521 7.25708L23.5219 1.79295C23.5219 1.48242 23.3985 1.1846 23.179 0.965014C22.9594 0.745431 22.6616 0.62207 22.351 0.62207H16.8869C16.5764 0.62207 16.2785 0.745431 16.059 0.965014C15.8394 1.1846 15.716 1.48242 15.716 1.79295C15.716 2.10349 15.8394 2.40131 16.059 2.62089C16.2785 2.84048 16.5764 2.96384 16.8869 2.96384H19.5243L12.9839 9.50415L10.2993 6.81941C10.1905 6.71068 10.0614 6.62443 9.91938 6.56558C9.77732 6.50674 9.62506 6.47645 9.47129 6.47645C9.31752 6.47645 9.16526 6.50674 9.0232 6.56558C8.88114 6.62443 8.75206 6.71068 8.64333 6.81941L1.22773 14.235C1.06397 14.3988 0.952449 14.6074 0.907267 14.8345C0.862084 15.0617 0.885272 15.2971 0.973897 15.5111C1.06252 15.725 1.2126 15.9079 1.40516 16.0365C1.59772 16.1652 1.82411 16.2339 2.05569 16.2339Z" fill="white"/>
</svg>
