<svg width="56" height="56" viewBox="0 0 56 56" fill="none" xmlns="http://www.w3.org/2000/svg">
<g clip-path="url(#clip0)">
<path d="M12.2218 37.0938C11.613 36.8374 10.9048 36.9784 10.4337 37.4495L3.76184 44.012C3.45428 44.3195 3.28125 44.7361 3.28125 45.1719V51.8438C3.28125 52.7506 4.01505 53.4844 4.92188 53.4844H11.5938C12.5006 53.4844 13.2344 52.7506 13.2344 51.8438V38.6094C13.2344 37.9461 12.8338 37.3469 12.2218 37.0938ZM24.7188 30.4063H18.1562C17.2494 30.4063 16.5156 31.1401 16.5156 32.0469V51.8438C16.5156 52.7506 17.2494 53.4844 18.1562 53.4844H24.7188C25.6256 53.4844 26.3594 52.7506 26.3594 51.8438V32.0469C26.3594 31.1401 25.6256 30.4063 24.7188 30.4063ZM37.9531 30.4063H31.2812C30.3744 30.4063 29.6406 31.1401 29.6406 32.0469V51.8438C29.6406 52.7506 30.3744 53.4844 31.2812 53.4844H37.9531C38.86 53.4844 39.5938 52.7506 39.5938 51.8438V32.0469C39.5938 31.1401 38.86 30.4063 37.9531 30.4063ZM51.7062 20.6875C51.0974 20.4311 50.3892 20.5754 49.9181 21.0432L43.3556 27.6057C43.048 27.9133 42.875 28.3299 42.875 28.7656V51.8438C42.875 52.7506 43.6088 53.4844 44.5156 53.4844H51.0781C51.985 53.4844 52.7188 52.7506 52.7188 51.8438V22.2031C52.7188 21.5399 52.3182 20.9406 51.7062 20.6875Z" fill="#00AF55"/>
<path d="M54.3594 2.51562H44.5156C43.8524 2.51562 43.2531 2.91452 43 3.52822C42.7469 4.14192 42.8879 4.84684 43.3557 5.31628L44.9483 6.91042L34.5501 17.2812H12.1513C11.7156 17.2812 11.2958 17.4543 10.9881 17.7635L0.477422 28.1984C0.173031 28.5061 0 28.9227 0 29.3568V38.6094C0 39.2726 0.400531 39.8719 1.01259 40.125C1.60913 40.3759 2.32378 40.2462 2.80066 39.7693L15.5543 27.125H37.9531C38.3889 27.125 38.8055 26.952 39.113 26.6443L51.8984 13.859L53.1995 15.16C53.6737 15.6311 54.3786 15.7721 54.9875 15.5157C55.5995 15.2625 56 14.6632 56 14V4.15625C56 3.24942 55.2662 2.51562 54.3594 2.51562Z" fill="#00AF55" fill-opacity="0.5"/>
</g>
<defs>
<clipPath id="clip0">
<rect width="56" height="56" fill="white"/>
</clipPath>
</defs>
</svg>
