<svg width="38" height="38" viewBox="0 0 38 38" fill="none" xmlns="http://www.w3.org/2000/svg">
<path d="M22.6367 19C22.6367 21.0085 21.0085 22.6367 19 22.6367C16.9915 22.6367 15.3633 21.0085 15.3633 19C15.3633 16.9915 16.9915 15.3633 19 15.3633C21.0085 15.3633 22.6367 16.9915 22.6367 19Z" fill="#0F0F0F"/>
<path d="M27.5052 12.5655C27.3304 12.0918 27.0515 11.663 26.6891 11.311C26.3371 10.9486 25.9086 10.6697 25.4346 10.4949C25.0502 10.3456 24.4727 10.1679 23.4089 10.1194C22.2583 10.067 21.9133 10.0557 19.0002 10.0557C16.0868 10.0557 15.7418 10.0667 14.5914 10.1192C13.5277 10.1679 12.9499 10.3456 12.5658 10.4949C12.0918 10.6697 11.663 10.9486 11.3113 11.311C10.9489 11.663 10.67 12.0915 10.4949 12.5655C10.3456 12.9499 10.1679 13.5277 10.1194 14.5914C10.067 15.7418 10.0557 16.0868 10.0557 19.0002C10.0557 21.9133 10.067 22.2583 10.1194 23.409C10.1679 24.4727 10.3456 25.0502 10.4949 25.4346C10.67 25.9086 10.9486 26.3371 11.311 26.6891C11.663 27.0515 12.0915 27.3304 12.5655 27.5052C12.9499 27.6548 13.5277 27.8325 14.5914 27.8809C15.7418 27.9334 16.0865 27.9444 18.9999 27.9444C21.9136 27.9444 22.2586 27.9334 23.4087 27.8809C24.4724 27.8325 25.0502 27.6548 25.4346 27.5052C26.3861 27.1382 27.1382 26.3861 27.5052 25.4346C27.6545 25.0502 27.8322 24.4727 27.8809 23.409C27.9334 22.2583 27.9444 21.9133 27.9444 19.0002C27.9444 16.0868 27.9334 15.7418 27.8809 14.5914C27.8325 13.5277 27.6548 12.9499 27.5052 12.5655ZM19.0002 24.6022C15.9059 24.6022 13.3975 22.0942 13.3975 18.9999C13.3975 15.9056 15.9059 13.3975 19.0002 13.3975C22.0942 13.3975 24.6025 15.9056 24.6025 18.9999C24.6025 22.0942 22.0942 24.6022 19.0002 24.6022ZM24.824 14.4853C24.101 14.4853 23.5148 13.8991 23.5148 13.176C23.5148 12.453 24.101 11.8668 24.824 11.8668C25.5471 11.8668 26.1333 12.453 26.1333 13.176C26.133 13.8991 25.5471 14.4853 24.824 14.4853Z" fill="#0F0F0F"/>
<path d="M19 0C8.50819 0 0 8.50819 0 19C0 29.4918 8.50819 38 19 38C29.4918 38 38 29.4918 38 19C38 8.50819 29.4918 0 19 0ZM29.8443 23.4981C29.7916 24.6595 29.6069 25.4524 29.3373 26.1465C28.7705 27.612 27.612 28.7705 26.1465 29.3373C25.4527 29.6069 24.6595 29.7913 23.4984 29.8443C22.3349 29.8974 21.9632 29.9102 19.0003 29.9102C16.037 29.9102 15.6657 29.8974 14.5019 29.8443C13.3408 29.7913 12.5476 29.6069 11.8538 29.3373C11.1256 29.0633 10.4663 28.6339 9.92125 28.0788C9.36635 27.534 8.93698 26.8744 8.66301 26.1465C8.39339 25.4527 8.20871 24.6595 8.15594 23.4984C8.10231 22.3346 8.08984 21.963 8.08984 19C8.08984 16.037 8.10231 15.6654 8.15565 14.5019C8.20842 13.3405 8.39281 12.5476 8.66243 11.8535C8.9364 11.1256 9.36606 10.466 9.92125 9.92125C10.466 9.36606 11.1256 8.93669 11.8535 8.66272C12.5476 8.3931 13.3405 8.20871 14.5019 8.15565C15.6654 8.1026 16.037 8.08984 19 8.08984C21.963 8.08984 22.3346 8.1026 23.4981 8.15594C24.6595 8.20871 25.4524 8.3931 26.1465 8.66243C26.8744 8.9364 27.534 9.36606 28.079 9.92125C28.6339 10.4663 29.0636 11.1256 29.3373 11.8535C29.6072 12.5476 29.7916 13.3405 29.8446 14.5019C29.8977 15.6654 29.9102 16.037 29.9102 19C29.9102 21.963 29.8977 22.3346 29.8443 23.4981Z" fill="#0F0F0F"/>
</svg>
