<svg width="56" height="56" viewBox="0 0 56 56" fill="none" xmlns="http://www.w3.org/2000/svg">
<path d="M9.95312 32.9219C7.23909 32.9219 5.03125 35.1297 5.03125 37.8438C5.03125 40.5578 7.23909 42.7656 9.95312 42.7656C12.6672 42.7656 14.875 40.5578 14.875 37.8438C14.875 35.1297 12.6672 32.9219 9.95312 32.9219ZM46.0469 32.9219C43.3328 32.9219 41.125 35.1297 41.125 37.8438C41.125 40.5578 43.3328 42.7656 46.0469 42.7656C48.7609 42.7656 50.9688 40.5578 50.9688 37.8438C50.9688 35.1297 48.7609 32.9219 46.0469 32.9219ZM28 0C25.286 0 23.0781 2.20784 23.0781 4.92188C23.0781 7.63591 25.286 9.84375 28 9.84375C30.714 9.84375 32.9219 7.63591 32.9219 4.92188C32.9219 2.20784 30.714 0 28 0Z" fill="#DF593B" fill-opacity="0.5"/>
<path d="M19.7969 23.0781H36.2031C37.11 23.0781 37.8438 22.235 37.8438 21.3281V19.6875C37.8438 14.2593 33.4282 9.84375 28 9.84375C22.5718 9.84375 18.1562 14.2593 18.1562 19.6875V21.3281C18.1562 22.235 18.89 23.0781 19.7969 23.0781ZM9.95312 42.7656C4.52495 42.7656 0 47.2906 0 52.7188V54.3594C0 55.2662 0.733797 56 1.64062 56H18.1562C19.0631 56 19.7969 55.2662 19.7969 54.3594V52.7188C19.7969 47.2906 15.3813 42.7656 9.95312 42.7656ZM35.7224 39.9651L29.6406 33.8832V28C29.6406 27.0932 28.9068 26.3594 28 26.3594C27.0932 26.3594 26.3594 27.0932 26.3594 28V33.8832L20.2776 39.965C19.6368 40.6058 19.6368 41.6441 20.2776 42.2849C20.9184 42.9258 21.9566 42.9258 22.5975 42.2849L28 36.8825L33.4026 42.285C34.0434 42.9259 35.0816 42.9259 35.7225 42.285C36.3634 41.6441 36.3634 40.6059 35.7224 39.9651ZM46.0469 42.7656C40.6187 42.7656 36.2031 47.2906 36.2031 52.7188V54.3594C36.2031 55.2662 36.9369 56 37.8438 56H54.3594C55.2662 56 56 55.2662 56 54.3594V52.7188C56 47.2906 51.475 42.7656 46.0469 42.7656Z" fill="#DF593B"/>
</svg>
