<?xml version="1.0" encoding="utf-8"?>
<!-- Generator: Adobe Illustrator 24.3.0, SVG Export Plug-In . SVG Version: 6.00 Build 0)  -->
<svg version="1.1" id="Layer_1" xmlns="http://www.w3.org/2000/svg" xmlns:xlink="http://www.w3.org/1999/xlink" x="0px" y="0px"
	 viewBox="0 0 101 21" style="enable-background:new 0 0 101 21;" xml:space="preserve">
<style type="text/css">
	.st0{fill:#2B47C3;}
	.st1{fill:#0F0F0F;}
</style>
<path class="st0" d="M39.4,13.3c-0.7,0-1.3-0.5-1.4-1.2c0-0.1-0.1-0.3-0.1-0.4c-0.1-0.3-0.2-0.6-0.3-0.9c-0.4-0.7-0.1-1.6,0.7-1.9
	c0.7-0.4,1.6-0.1,1.9,0.7c0.2,0.5,0.4,0.9,0.6,1.4c0.1,0.2,0.1,0.4,0.1,0.6c0.2,0.8-0.4,1.5-1.2,1.7C39.6,13.3,39.5,13.3,39.4,13.3z
	"/>
<path class="st0" d="M36,8.7c-0.2,0-0.5-0.1-0.7-0.2c-0.4-0.2-0.9-0.4-1.3-0.5c-0.8-0.2-1.3-0.9-1.1-1.7c0.2-0.8,0.9-1.3,1.7-1.1
	C35.3,5.4,36,5.7,36.6,6c0.7,0.4,1,1.2,0.6,1.9C37,8.4,36.5,8.7,36,8.7z"/>
<path class="st0" d="M39.5,14.5c-0.7-0.3-1.6,0-1.9,0.7c0,0.1-0.1,0.2-0.1,0.2c0,0,0,0.1-0.1,0.1c0,0.1-0.1,0.1-0.1,0.2
	c0,0,0,0.1-0.1,0.1c-0.1,0.1-0.1,0.1-0.2,0.2c0,0,0,0,0,0.1c-0.1,0.1-0.1,0.2-0.2,0.3l0,0c-0.5,0.5-1.1,1-1.7,1.3
	c-0.2,0.1-0.5,0.2-0.8,0.3c-0.4,0.1-0.9,0.2-1.3,0.2c0,0,0,0,0,0h0c-0.6,0-1.2-0.1-1.8-0.3c-0.4-0.2-0.9-0.4-1.2-0.7c0,0,0,0,0,0
	c-0.4-0.3-0.7-0.6-1-1c-0.2-0.3-0.5-0.7-0.6-1c-0.3-0.6-0.4-1.3-0.5-1.9c0,0,0,0,0,0c0-0.1,0-0.1,0-0.1c0-0.4,0.1-0.8,0.2-1.2
	c0,0,0,0,0-0.1c0.2-0.9,0.8-1.8,1.5-2.5c0.1,0,0.1-0.1,0.2-0.1C29.8,9.1,29.8,9,29.9,9c0,0,0.1,0,0.1-0.1c0.1-0.1,0.1-0.1,0.2-0.1
	c0,0,0,0,0,0c0,0,0,0,0,0c0.2-0.1,0.4-0.2,0.6-0.3c0.7-0.3,1.1-1.2,0.7-1.9c-0.3-0.7-1.2-1-1.9-0.7c-0.4,0.2-0.9,0.4-1.3,0.7
	c0,0,0,0,0,0c-0.1,0.1-0.2,0.1-0.2,0.2c0,0,0,0-0.1,0c-0.1,0.1-0.1,0.1-0.2,0.2c0,0,0,0-0.1,0l0,0l0,0c-0.1,0.1-0.1,0.1-0.2,0.2
	c-2.6,2.3-3.4,6-1.9,9.1c0.3,0.6,0.6,1.1,0.9,1.6c0,0,0,0,0,0c0,0,0,0,0,0.1c0.1,0.1,0.2,0.2,0.3,0.3c0,0,0.1,0.1,0.1,0.1
	c0.1,0.1,0.2,0.2,0.3,0.3c0,0,0.1,0,0.1,0.1c0.1,0.1,0.2,0.2,0.3,0.3c0,0,0.1,0.1,0.1,0.1c0.1,0.1,0.2,0.1,0.3,0.2
	c0,0,0.1,0,0.1,0.1c0,0,0,0,0.1,0c1.3,1,2.9,1.5,4.6,1.5c0,0,0.1,0,0.1,0H33c0.1,0,0.3,0,0.4,0c0.1,0,0.3,0,0.4,0c0,0,0,0,0,0
	c0.1,0,0.2,0,0.3,0c0,0,0.1,0,0.1,0c0.1,0,0.2,0,0.3-0.1c0,0,0.1,0,0.1,0c0.1,0,0.2,0,0.2-0.1c0.4-0.1,0.9-0.3,1.3-0.4
	c1-0.5,2-1.1,2.7-2c0,0,0,0,0,0c0.1-0.1,0.2-0.2,0.2-0.3c0,0,0.1-0.1,0.1-0.1c0.1-0.1,0.2-0.2,0.2-0.3c0,0,0-0.1,0.1-0.1
	c0.1-0.1,0.1-0.2,0.2-0.3c0,0,0-0.1,0.1-0.1c0.1-0.1,0.1-0.2,0.2-0.4v0v0c0-0.1,0.1-0.1,0.1-0.2C40.5,15.7,40.2,14.9,39.5,14.5z"/>
<path class="st1" d="M3.4,20.2c-1-0.4-1.8-1-2.4-1.9c-0.6-0.8-0.9-1.7-0.9-2.8h3.3c0.1,0.8,0.4,1.5,1,2c0.6,0.5,1.4,0.8,2.4,0.8
	c1.1,0,1.9-0.3,2.5-0.8c0.6-0.5,0.9-1.2,0.9-2c0-0.6-0.2-1.1-0.6-1.5c-0.4-0.4-0.8-0.7-1.4-0.9s-1.3-0.4-2.3-0.7
	c-1.2-0.3-2.2-0.6-3-1c-0.8-0.3-1.4-0.8-2-1.5C0.4,9.2,0.2,8.3,0.2,7.2c0-1.1,0.3-2,0.8-2.8c0.5-0.8,1.3-1.4,2.3-1.8
	s2.1-0.6,3.4-0.6c1.8,0,3.3,0.4,4.5,1.3c1.2,0.9,1.8,2.1,1.9,3.7H9.6c-0.1-0.7-0.4-1.3-1-1.7C8.1,4.7,7.3,4.5,6.3,4.5
	c-0.9,0-1.6,0.2-2.2,0.7C3.6,5.6,3.3,6.2,3.3,7.1c0,0.6,0.2,1,0.5,1.4c0.3,0.4,0.8,0.7,1.3,0.9C5.7,9.6,6.4,9.8,7.4,10
	c1.2,0.3,2.3,0.7,3,1c0.8,0.3,1.4,0.9,2,1.6c0.6,0.7,0.8,1.6,0.8,2.8c0,0.9-0.3,1.8-0.8,2.7c-0.5,0.8-1.3,1.5-2.2,2
	c-1,0.5-2.1,0.8-3.5,0.8C5.5,20.9,4.4,20.6,3.4,20.2z"/>
<path class="st1" d="M19.9,8.4v8.1c0,0.6,0.1,1,0.4,1.2c0.3,0.2,0.7,0.4,1.3,0.4h1.9v2.5h-2.4c-1.4,0-2.4-0.3-3.2-1
	c-0.7-0.6-1.1-1.7-1.1-3.1V8.4h-1.7V6h1.7V2.5h3.1V6h3.6v2.5H19.9z"/>
<path class="st1" d="M52.9,3.4c-0.4-0.4-0.6-0.8-0.6-1.4c0-0.6,0.2-1,0.6-1.4c0.4-0.4,0.8-0.6,1.4-0.6c0.5,0,1,0.2,1.4,0.6
	C56,1,56.2,1.5,56.2,2.1c0,0.6-0.2,1-0.6,1.4C55.3,3.8,54.8,4,54.3,4C53.7,4,53.3,3.8,52.9,3.4z M55.8,6v14.7h-3.1V6H55.8z"/>
<path class="st1" d="M72.8,14.4H61.5c0.1,1.2,0.5,2.1,1.3,2.8c0.8,0.7,1.8,1.1,2.9,1.1c1.7,0,2.8-0.7,3.5-2.1h3.3
	c-0.5,1.3-1.3,2.5-2.5,3.3s-2.6,1.3-4.4,1.3c-1.4,0-2.7-0.3-3.8-1c-1.1-0.6-2-1.5-2.6-2.7c-0.6-1.1-1-2.5-1-4c0-1.5,0.3-2.8,0.9-4
	c0.6-1.1,1.5-2,2.6-2.7C63,6,64.3,5.7,65.7,5.7c1.4,0,2.7,0.3,3.8,0.9c1.1,0.6,2,1.5,2.6,2.5c0.6,1.1,0.9,2.4,0.9,3.8
	C72.9,13.5,72.9,14,72.8,14.4z M69.7,12c0-1.1-0.4-2-1.2-2.7c-0.8-0.7-1.8-1-2.9-1c-1.1,0-2,0.3-2.7,1c-0.8,0.7-1.2,1.6-1.3,2.7
	H69.7z"/>
<path class="st1" d="M77.7,20.3c-0.9-0.4-1.7-1-2.2-1.7c-0.5-0.7-0.8-1.5-0.9-2.4h3.2c0.1,0.6,0.4,1.1,0.9,1.6
	c0.6,0.4,1.2,0.6,2.1,0.6c0.9,0,1.5-0.2,2-0.5c0.5-0.3,0.7-0.7,0.7-1.3c0-0.6-0.3-1-0.8-1.2c-0.5-0.3-1.4-0.6-2.5-0.9
	c-1.1-0.3-2-0.6-2.7-0.9c-0.7-0.3-1.3-0.7-1.8-1.3c-0.5-0.6-0.8-1.4-0.8-2.3c0-0.8,0.2-1.5,0.7-2.2c0.5-0.7,1.1-1.2,2-1.5
	c0.9-0.4,1.9-0.6,3-0.6c1.7,0,3.1,0.4,4.1,1.3c1,0.8,1.6,2,1.7,3.5h-3.1c-0.1-0.7-0.3-1.2-0.8-1.6c-0.5-0.4-1.1-0.6-2-0.6
	c-0.8,0-1.4,0.1-1.9,0.4C78.2,9,78,9.4,78,9.9c0,0.4,0.1,0.7,0.4,1c0.3,0.3,0.6,0.5,1,0.6c0.4,0.1,1,0.3,1.8,0.6
	c1.1,0.3,2,0.6,2.7,0.9c0.7,0.3,1.3,0.7,1.8,1.3c0.5,0.6,0.8,1.3,0.8,2.3c0,0.8-0.2,1.6-0.7,2.2c-0.5,0.7-1.1,1.2-2,1.6
	c-0.9,0.4-1.9,0.6-3,0.6C79.7,20.9,78.6,20.7,77.7,20.3z"/>
<polygon class="st1" points="96,11.2 96,6.3 93.1,6.3 93.1,11.3 88.2,11.3 88.2,13.8 93.1,13.8 93.1,18.8 96,18.8 96,13.8 
	100.9,13.8 100.9,11.2 "/>
<path class="st1" d="M50.4,8.5V6c-1,0-1.9,0.2-2.7,0.6C47,7,46.4,7.6,46,8.3V6h-3.1v14.7H46v-7.3c0.1-2.4,2-4.3,4.5-4.3h0L50.4,8.5
	L50.4,8.5z"/>
</svg>
