<svg width="56" height="56" viewBox="0 0 56 56" fill="none" xmlns="http://www.w3.org/2000/svg">
<g clip-path="url(#clip0)">
<path d="M55.5193 36.7932C55.5184 36.7923 55.1306 36.5215 54.561 36.17C52.7597 35.058 50.445 35.275 48.8788 36.6991L38.9524 45.7253C38.5394 46.1057 37.9699 46.2342 37.4655 46.1114L22.764 42.633C21.8828 42.4248 21.3381 41.5419 21.5463 40.6592C21.7514 39.7779 22.6294 39.2316 23.5202 39.4415L33.7305 41.8571C36.2418 42.4513 38.7685 40.9293 39.4149 38.4309C39.4221 38.403 39.4293 38.3751 39.4361 38.3471C39.654 37.4691 39.119 36.5799 38.2409 36.362L25.1159 33.0808C24.8532 33.0135 24.584 33.0135 24.3212 33.0808L9.84375 36.3125L8.20312 38.3054V52.321L37.6387 55.9872C38.179 56.0485 38.6607 55.8606 39.0038 55.5194L55.5194 39.1131C56.1602 38.4722 56.1602 37.434 55.5193 36.7932Z" fill="#F9BD01"/>
<path d="M0 37.9531V54.3594C0 55.2654 0.734562 56 1.64062 56H8.20312C9.10919 56 9.84375 55.2654 9.84375 54.3594V36.3125H1.64062C0.734562 36.3125 0 37.0471 0 37.9531ZM39.9651 8.68383L32.4413 0.480703C32.1208 0.160234 31.701 0 31.2812 0C30.8615 0 30.4417 0.160234 30.1213 0.480703L22.5975 8.68383C22.1297 9.15327 21.9887 9.85819 22.2418 10.4719C22.4949 11.0856 23.0941 11.4844 23.7575 11.4844H28V24.8281C28 25.735 28.7338 26.4688 29.6406 26.4688H32.9219C33.8287 26.4688 34.5625 25.735 34.5625 24.8281V11.4844H38.805C39.4683 11.4844 40.0676 11.0855 40.3207 10.4718C40.5737 9.85808 40.4329 9.15327 39.9651 8.68383Z" fill="#F9BD01" fill-opacity="0.5"/>
</g>
<defs>
<clipPath id="clip0">
<rect width="56" height="56" fill="white"/>
</clipPath>
</defs>
</svg>
